<?xml version="1.0" encoding="utf-8"?>
<!-- Generator: Adobe Illustrator 28.0.0, SVG Export Plug-In . SVG Version: 6.00 Build 0)  -->
<svg version="1.1" id="_Слой_2" xmlns="http://www.w3.org/2000/svg" xmlns:xlink="http://www.w3.org/1999/xlink" x="0px"
	 y="0px" viewBox="0 0 2200 900" style="enable-background:new 0 0 2200 900;" xml:space="preserve">
<style type="text/css">
	.st0{fill:#708E6C;}
</style>
<g id="_Слой_4">
	<path class="st0" d="M387.6,312.2c0.3,0.6-1.9,2.1-2.1,2.2c-32.3,23-70.1,119.7-70.1,119.7c-16.6,39.7-33.2,82.7-44.5,143.1
		c0,0-13.8,74-7.9,130.6c0.6,5.1,1.1,6.9,2.4,19.1c0,0,2,17.8,9,45.8c0.4,1.5,1.3,4.6,4,7c1.7,1.5,3.6,2.2,6.3,3.2
		c3.5,1.2,6.2,1.7,9.2,2.2c8.9,1.5,7.8,1.5,11.7,2.1c14.4,2.2,44.3,4.8,44.3,4.8s25.3,2,60.1,1.3c3.1-0.1,10.4-0.3,12.9-4.6
		c2-3.7-0.6-8.7-1.2-10.1c-17.4-38.5-60.3-159.9-57.7-251.8c0.5-16.5,2.8-30.3,7.3-57.8c0,0,6.5-38.5,41.6-112.9
		c0.4-0.9,1.5-2.9,3.5-3.8c0.9-0.1,2.5-0.3,4.5-0.2c0,0,5.5,0.4,10.9,3.8c29,18.1,45.5,39.6,45.5,39.6c16.1,21,48.1,68.1,52,78.4
		c0.3,0.7,1.3,3.8,2.8,3.8s2.5-3.4,2.9-4.4c10.2-32.1,2.9-65.1,2.9-65.1c-6.3-28.2-10.2-46.2-22.7-66.3c-0.5-0.9-1.8-2.4-1.3-3.3
		c3.2-5,61.3,21,111.6,56c9,6.2,30.3,21.3,53.8,43.1c7,6.5,5.2,5.3,30.2,29.5c3.4,3.3,12,11.6,22.1,22.6
		c2.2,2.4,11.4,12.4,15.4,18.7c1.6,2.7,3.6,5.3,5.2,7.9c0.1,0.2,1,1.2,2.5,3.5c1.2,1.5,1.7,2.4,3,3.1c0.7,0.4,1.5,1,2.6,0.7
		c1-0.2,1.5-1,2-1.5c0.8-1.1,1.1-2,1.3-3c0.5-1.8,0.8-3.1,0.8-4.8c0.9-33.8-9.4-67.6-9.4-67.6c-4.7-14.7-7.7-24.4-13.7-38.7
		c-15.7-37.7-33.1-64.3-38.5-72.3C684,308,667.1,290.5,649,271.9c0,0-32.8-33.9-45.1-36c-0.2,0-1.5-0.2-1.8-1
		c-0.4-1,0.9-2.1,1.5-2.7c16.7-16.3,26.5-22.7,26.5-22.7c9-5.9,13.4-8.8,14.8-9.6c0,0,12-7.1,24.8-12.7
		c38.7-16.9,91.1-22,100.2-19.5c0.5,0.1,2.8,0.9,3.7-0.2c1.3-1.5-1.6-6.3-2.7-7.9c-15.4-23.9-65.6-34.5-65.6-34.5
		c-15.2-3.2-37.1-6.4-65.6-6.1c-37.4,0.5-67.1,7-85.4,12.1C508,144,483,161.7,482.1,163.1c-0.1,0.1-0.6,1-1.3,0.9
		c-0.6-0.1-1-0.9-1.1-1.1c-2.1-4.3-6.1-7.4-9-11.2c-1.8-2.5-4.1-4.5-8.5-8.8c-10-9.4-20.6-16.1-26.4-19.6c-1.4-0.9-14-8.6-27.7-14.4
		c-32.9-13.9-69.2-15.9-81.3-16.4c0,0-54.4-1.7-91.7,20.6c-1.4,0.8-7.9,4.8-7.2,6.7c0.6,1.5,5.3,0.4,14.7,1.1
		c4.6,0.3,7.9,0.9,12,1.5c2.3,0.4,8.9,1.6,17.6,4.3c39,12,93.3,45.3,107.2,55.7c5.2,3.8,5.8,5.4,5.5,6.1c-0.5,1.1-3.6,0.6-4.4,0.5
		c-11.6-1.6-44.9,8.2-51.5,10.1c-8.5,2.5-27.4,8.6-49.5,20c-7.9,4.1-38,20.2-71.7,53.1c0,0-47.1,45.9-58.2,95.2
		c-0.3,1.1-1.1,4.7,0.1,5.3c0.9,0.5,2.6-1,4-2.2c3.3-2.9,7.1-5.2,10.2-8.3c3.1-3,6.8-5.4,14.1-10.3c8.8-5.8,16.3-9.2,22.4-11.9
		c0,0,46.9-20.8,90.6-24.7c0.5,0,1.8-0.2,2,0.3c0.2,0.6-1.3,1.6-1.6,1.9c-2.8,2.1-7.8,8.5-15.7,18.6c0,0-10.4,13.4-12.6,25.7
		c-0.2,1.1-0.5,3.6,0.6,4.1c1.2,0.7,3.3-0.9,6.7-3.2c1-0.7,1.8-1.2,2.5-1.8c0.8-0.6,1.4-1.1,1.5-1.2c0.8-0.6,8.2-6.7,19.3-14
		c10.3-6.8,22.2-14.7,39.2-21.9c5.9-2.5,10.8-4.3,14.3-5.5c10.9-4.1,23.4-6.7,37.2-6.2C385.5,312.1,386.6,312.1,387.6,312.2
		L387.6,312.2z"/>
</g>
<rect x="1699.1" y="1376.4" style="fill:none;" width="3.2" height="0"/>
<g id="SvgjsG1609" transform="matrix(6.134712620222292,0,0,6.134712620222292,119.27978369933393,-0.6760086175787947)">
	<path d="M196.4,60.7h12.8l-15.4,44.1h-11.4l-10.2-29.1l-10.3,29.1h-11.6l-15.1-44.1h12.7l9.1,28.7l10.4-28.7h9.5l10.4,28.6
		L196.4,60.7z M257.4,82.1l-0.1,3h-32.6c0.5,7.3,5.4,10.8,11.3,10.8c4.4,0,7.8-2.1,9.5-6l11.3,1.7c-2.9,8.9-10.8,14-20.7,14
		c-14.2,0-23.5-8.4-23.5-22.9s9.6-23,23.1-23C248.1,59.8,257.4,66.7,257.4,82.1L257.4,82.1z M235.7,68.5c-5.6,0-9.5,2.6-10.7,8.5
		h20.2C244.6,71.4,240.8,68.5,235.7,68.5z M292.7,59.9c11.6,0,21.2,8.6,21.2,23s-9.6,23-21.2,23c-6.1,0-11.4-2.4-13.9-6.8l-0.3,5.7
		h-11.7V39h12.3v27.1C281.7,62.1,286.9,59.9,292.7,59.9L292.7,59.9z M289.8,95.6c6.6,0,11.7-4.8,11.7-12.7c0-7.9-5.1-12.8-11.7-12.8
		c-6.5,0-11.6,5.1-11.6,12.8S283.3,95.6,289.8,95.6z"/>
</g>
</svg>
