<svg width="1863" height="1063" viewBox="0 0 1863 1063" fill="none" xmlns="http://www.w3.org/2000/svg">
<path opacity="0.2" d="M69.8099 385.582L61.1383 372.735L69.8099 385.582C72.5273 383.748 78.7978 381.683 92.1164 382.89C143.366 387.534 186.295 405.48 235.484 426.177L235.511 426.188C245.225 430.276 255.187 434.468 265.418 438.631L271.26 424.274L265.418 438.631C338.666 468.436 413.509 494.476 493.139 507.91C530.765 514.257 582.509 522.35 627.101 500.81C642.344 493.446 654.139 480.307 662.164 467.255C670.266 454.076 676.072 438.494 677.415 423.674C681.89 374.283 669.363 340.267 645.917 300.886C644.548 298.587 643.179 296.288 641.81 293.986L641.768 293.917C623.099 262.551 604.261 230.902 584.712 199.563L571.561 207.767L584.712 199.563C579.985 191.986 574.371 184.189 568.992 176.795C568.345 175.905 567.696 175.014 567.05 174.127L554.522 183.254L567.05 174.127C562.188 167.454 557.482 160.991 553.086 154.454C542.767 139.11 536.349 126.424 534.822 115.846C533.484 106.584 533.401 95.3647 535.462 85.5861C537.584 75.5191 541.261 70.0607 544.705 67.6114C552.33 62.1887 559.74 62.4445 579.308 64.8009L579.331 64.8036C581.423 65.0555 583.638 65.3223 585.931 65.5815C608.462 68.129 634.288 80.3546 661.288 97.7556C683.024 111.765 703.749 127.922 722.527 142.573L722.534 142.578C726.739 145.859 730.855 149.071 734.831 152.137L743.984 140.271L734.831 152.137C825.778 222.292 899.06 304.709 967.479 398.839C976.982 411.913 986.471 425.055 995.996 438.245L996.029 438.291L996.496 438.938C1074.53 547.008 1154.93 658.361 1256.5 750.154C1357.31 841.254 1461.17 920.692 1587.58 978.647C1655.21 1009.65 1741.98 1046.75 1823.8 1047.34C1836.7 1047.44 1847.24 1037.06 1847.33 1024.16C1847.42 1011.26 1837.04 1000.73 1824.14 1000.63C1753.74 1000.12 1675.66 967.639 1607.05 936.186C1486.68 881.002 1386.85 804.989 1287.82 715.5C1190.2 627.276 1112.53 519.822 1033.88 410.919C1024.37 397.74 1014.83 384.541 1005.27 371.376C935.117 274.867 858.854 188.813 763.362 115.152L756.46 124.101L763.362 115.152C759.592 112.244 755.633 109.155 751.471 105.907L751.256 105.739C732.665 91.2316 710.258 73.7453 686.594 58.4938C657.921 40.0142 624.67 22.9535 591.178 19.1669C589.203 18.9436 587.168 18.6858 584.972 18.4075C584.554 18.3545 584.13 18.3005 583.701 18.2458C566.628 16.0688 541.15 12.8201 517.632 29.5464L524.552 39.2772L517.631 29.5464C500.801 41.5158 493.114 60.0158 489.754 75.9508C486.33 92.1941 486.647 109.072 488.589 122.521L503.93 120.306L488.589 122.521C491.72 144.204 503.434 164.328 514.324 180.52C519.249 187.843 524.455 194.989 529.22 201.53L529.297 201.636C529.945 202.525 530.584 203.402 531.217 204.272C536.67 211.768 541.35 218.307 545.078 224.285C564.352 255.18 582.958 286.439 601.684 317.901C603.049 320.193 604.413 322.487 605.779 324.78L619.097 316.851L605.779 324.78C625.999 358.744 634.206 382.898 630.893 419.458C630.317 425.821 627.434 434.554 622.37 442.791C617.231 451.149 611.38 456.529 606.782 458.75C577.577 472.857 540.712 468.565 500.91 461.85C426.18 449.243 354.968 424.64 283.025 395.365C273.348 391.428 263.786 387.399 254.175 383.35L253.331 382.994C204.882 362.58 155.374 341.72 96.3318 336.37C78.747 334.777 59.5018 336.184 43.6753 346.866C26.7696 358.277 18.8319 376.686 16.916 397.829C10.0229 473.899 59.839 519.589 105.389 557.808C131.345 579.587 159.033 599.78 185.914 619.385L186.125 619.539C200.232 629.828 214.114 639.953 227.598 650.18C239.016 658.841 250.349 667.635 261.767 676.495L262.184 676.819C304.293 709.494 347.531 743.047 396.45 770.473C407.7 776.78 421.935 772.776 428.244 761.525C434.554 750.272 430.545 736.038 419.295 729.73C373.681 704.157 333.297 672.861 290.904 639.972L290.873 639.948C279.363 631.018 267.703 621.972 255.827 612.965C241.575 602.155 227.223 591.69 213.062 581.365L213.015 581.331C186.219 561.792 160.12 542.755 135.415 522.026C88.7597 482.879 58.9463 451.611 63.4377 402.045C64.5405 389.875 68.1473 386.704 69.8099 385.582Z" fill="white" stroke="#FF4401" stroke-width="31" stroke-linecap="round"/>
</svg>
