<svg width="625" height="702" viewBox="0 0 625 702" fill="none" xmlns="http://www.w3.org/2000/svg">
<path d="M238.6 220.2C238.9 220.8 236.7 222.3 236.5 222.4C204.2 245.4 166.4 342.1 166.4 342.1C149.8 381.8 133.2 424.8 121.9 485.2C121.9 485.2 108.1 559.2 114 615.8C114.6 620.9 115.1 622.7 116.4 634.9C116.4 634.9 118.4 652.7 125.4 680.7C125.8 682.2 126.7 685.3 129.4 687.7C131.1 689.2 133 689.9 135.7 690.9C139.2 692.1 141.9 692.6 144.9 693.1C153.8 694.6 152.7 694.6 156.6 695.2C171 697.4 200.9 700 200.9 700C200.9 700 226.2 702 261 701.3C264.1 701.2 271.4 701 273.9 696.7C275.9 693 273.3 688 272.7 686.6C255.3 648.1 212.4 526.7 215 434.8C215.5 418.3 217.8 404.5 222.3 377C222.3 377 228.8 338.5 263.9 264.1C264.3 263.2 265.4 261.2 267.4 260.3C268.3 260.2 269.9 260 271.9 260.1C271.9 260.1 277.4 260.5 282.8 263.9C311.8 282 328.3 303.5 328.3 303.5C344.4 324.5 376.4 371.6 380.3 381.9C380.6 382.6 381.6 385.7 383.1 385.7C384.6 385.7 385.6 382.3 386 381.3C396.2 349.2 388.9 316.2 388.9 316.2C382.6 288 378.7 270 366.2 249.9C365.7 249 364.4 247.5 364.9 246.6C368.1 241.6 426.2 267.6 476.5 302.6C485.5 308.8 506.8 323.9 530.3 345.7C537.3 352.2 535.5 351 560.5 375.2C563.9 378.5 572.5 386.8 582.6 397.8C584.8 400.2 594 410.2 598 416.5C599.6 419.2 601.6 421.8 603.2 424.4C603.3 424.6 604.2 425.6 605.7 427.9C606.9 429.4 607.4 430.3 608.7 431C609.4 431.4 610.2 432 611.3 431.7C612.3 431.5 612.8 430.7 613.3 430.2C614.1 429.1 614.4 428.2 614.6 427.2C615.1 425.4 615.4 424.1 615.4 422.4C616.3 388.6 606 354.8 606 354.8C601.3 340.1 598.3 330.4 592.3 316.1C576.6 278.4 559.2 251.8 553.8 243.8C535 216 518.1 198.5 500 179.9C500 179.9 467.2 146 454.9 143.9C454.7 143.9 453.4 143.7 453.1 142.9C452.7 141.9 454 140.8 454.6 140.2C471.3 123.9 481.1 117.5 481.1 117.5C490.1 111.6 494.5 108.7 495.9 107.9C495.9 107.9 507.9 100.8 520.7 95.2C559.4 78.3 611.8 73.2 620.9 75.7C621.4 75.8 623.7 76.6 624.6 75.5C625.9 74 623 69.2 621.9 67.6C606.5 43.7 556.3 33.1 556.3 33.1C541.1 29.9 519.2 26.7 490.7 27C453.3 27.5 423.6 34 405.3 39.1C359 52 334 69.7 333.1 71.1C333 71.2 332.5 72.1 331.8 72C331.2 71.9 330.8 71.1 330.7 70.9C328.6 66.6 324.6 63.5 321.7 59.7C319.9 57.2 317.6 55.2 313.2 50.9C303.2 41.5 292.6 34.8 286.8 31.3C285.4 30.4 272.8 22.7 259.1 16.9C226.2 3 189.9 0.999999 177.8 0.499999C177.8 0.499999 123.4 -1.2 86.1 21.1C84.7 21.9 78.2 25.9 78.9 27.8C79.5 29.3 84.2 28.2 93.6 28.9C98.2 29.2 101.5 29.8 105.6 30.4C107.9 30.8 114.5 32 123.2 34.7C162.2 46.7 216.5 80 230.4 90.4C235.6 94.2 236.2 95.8 235.9 96.5C235.4 97.6 232.3 97.1 231.5 97C219.9 95.4 186.6 105.2 180 107.1C171.5 109.6 152.6 115.7 130.5 127.1C122.6 131.2 92.5 147.3 58.8 180.2C58.8 180.2 11.7 226.1 0.600004 275.4C0.300004 276.5 -0.500006 280.1 0.699994 280.7C1.59999 281.2 3.29999 279.7 4.69999 278.5C7.99999 275.6 11.8 273.3 14.9 270.2C18 267.2 21.7 264.8 29 259.9C37.8 254.1 45.3 250.7 51.4 248C51.4 248 98.3 227.2 142 223.3C142.5 223.3 143.8 223.1 144 223.6C144.2 224.2 142.7 225.2 142.4 225.5C139.6 227.6 134.6 234 126.7 244.1C126.7 244.1 116.3 257.5 114.1 269.8C113.9 270.9 113.6 273.4 114.7 273.9C115.9 274.6 118 273 121.4 270.7C122.4 270 123.2 269.5 123.9 268.9C124.7 268.3 125.3 267.8 125.4 267.7C126.2 267.1 133.6 261 144.7 253.7C155 246.9 166.9 239 183.9 231.8C189.8 229.3 194.7 227.5 198.2 226.3C209.1 222.2 221.6 219.6 235.4 220.1C236.5 220.1 237.6 220.1 238.6 220.2Z" fill="#708E6C"/>
</svg>
